<svg xmlns="http://www.w3.org/2000/svg" version="1.1" xmlns:xlink="http://www.w3.org/1999/xlink" xmlns:svgjs="http://svgjs.dev/svgjs" width="1440" height="560" preserveAspectRatio="none" viewBox="0 0 1440 560"><g mask="url(&quot;#SvgjsMask1006&quot;)" fill="none"><path d="M19.86 102.77L58.08 102.77L58.08 140.99L19.86 140.99z" stroke="rgba(168, 177, 169, 1)"></path><path d="M561.32 345.71L604.15 345.71L604.15 388.54L561.32 388.54z" stroke="rgba(168, 177, 169, 1)"></path><path d="M856.88 223.08a48.02 48.02 0 1 0-95.12 13.31z" fill="rgba(168, 177, 169, 1)"></path><path d="M126.13 179.12 a32.46 32.46 0 1 0 64.92 0 a32.46 32.46 0 1 0 -64.92 0z" stroke="rgba(168, 177, 169, 1)"></path><path d="M141.01 247.33 a43.19 43.19 0 1 0 86.38 0 a43.19 43.19 0 1 0 -86.38 0z" fill="rgba(168, 177, 169, 1)"></path><path d="M582.72 53.19a20.49 20.49 0 1 0-17.02-37.28z" fill="rgba(168, 177, 169, 1)"></path><path d="M288.57 212.18L323.19 212.18L323.19 246.8L288.57 246.8z" stroke="rgba(168, 177, 169, 1)"></path><path d="M1152.22 287.15L1161.73 287.15L1161.73 296.66L1152.22 296.66z" fill="rgba(168, 177, 169, 1)"></path><path d="M919.89 342.93 a11.55 11.55 0 1 0 23.1 0 a11.55 11.55 0 1 0 -23.1 0z" fill="rgba(168, 177, 169, 1)"></path><path d="M915.66 300.99 a52.32 52.32 0 1 0 104.64 0 a52.32 52.32 0 1 0 -104.64 0z" fill="rgba(168, 177, 169, 1)"></path><path d="M659.29 79.72L680.31 79.72L680.31 100.74L659.29 100.74z" fill="rgba(168, 177, 169, 1)"></path><path d="M312.07 452.54L325.36 452.54L325.36 465.83L312.07 465.83z" fill="rgba(168, 177, 169, 1)"></path><path d="M806.9 581.61a55.65 55.65 0 1 0-26.07-108.2z" fill="rgba(168, 177, 169, 1)"></path><path d="M202.71 43.7L220.73 43.7L220.73 61.72L202.71 61.72z" stroke="rgba(168, 177, 169, 1)"></path><path d="M556.2 383.82a18.47 18.47 0 1 0-33.41-15.76z" fill="rgba(168, 177, 169, 1)"></path><path d="M1381.85 288.74L1417.21 288.74L1417.21 324.1L1381.85 324.1z" stroke="rgba(168, 177, 169, 1)"></path><path d="M756.57 478.14a24.67 24.67 0 1 0-49.29 2.36z" stroke="rgba(168, 177, 169, 1)"></path><path d="M1366.92 277.23L1395.64 277.23L1395.64 305.33L1366.92 305.33z" fill="rgba(168, 177, 169, 1)"></path><path d="M148.92 370.51L163 370.51L163 401.82L148.92 401.82z" fill="rgba(168, 177, 169, 1)"></path><path d="M887.16-0.77a28.3 28.3 0 1 0-34.9 44.56z" fill="rgba(168, 177, 169, 1)"></path><path d="M1101.57 27.22a30.08 30.08 0 1 0-18 57.41z" stroke="rgba(168, 177, 169, 1)"></path><path d="M754.47 36.6a2.82 2.82 0 1 0 5.46 1.44z" fill="rgba(168, 177, 169, 1)"></path><path d="M647.09 111.4a9.18 9.18 0 1 0 1.42-18.31z" stroke="rgba(168, 177, 169, 1)"></path><path d="M490.51 105.26L497.97 105.26L497.97 112.72L490.51 112.72z" fill="rgba(168, 177, 169, 1)"></path><path d="M1.03 278.31 a4.22 4.22 0 1 0 8.44 0 a4.22 4.22 0 1 0 -8.44 0z" fill="rgba(168, 177, 169, 1)"></path><path d="M1300.31 412.88L1302.55 412.88L1302.55 418.77L1300.31 418.77z" stroke="rgba(168, 177, 169, 1)"></path><path d="M1421.99 473.5L1468.27 473.5L1468.27 519.78L1421.99 519.78z" stroke="rgba(168, 177, 169, 1)"></path><path d="M758.75 521.09L784.76 521.09L784.76 547.1L758.75 547.1z" stroke="rgba(168, 177, 169, 1)"></path><path d="M105.91 527.88 a55.86 55.86 0 1 0 111.72 0 a55.86 55.86 0 1 0 -111.72 0z" fill="rgba(168, 177, 169, 1)"></path><path d="M15.09 372.53L68.82 372.53L68.82 407.41L15.09 407.41z" stroke="rgba(168, 177, 169, 1)"></path><path d="M90.96 200.18L114.45 200.18L114.45 223.67L90.96 223.67z" stroke="rgba(168, 177, 169, 1)"></path><path d="M1243.8 180.19a37.23 37.23 0 1 0-33.62 66.44z" fill="rgba(168, 177, 169, 1)"></path><path d="M391.24 77.25L434.5 77.25L434.5 91.43L391.24 91.43z" stroke="rgba(168, 177, 169, 1)"></path></g><defs><mask id="SvgjsMask1006"><rect width="1440" height="560" fill="#ffffff"></rect></mask></defs></svg>