<svg xmlns="http://www.w3.org/2000/svg" version="1.1" xmlns:xlink="http://www.w3.org/1999/xlink" xmlns:svgjs="http://svgjs.dev/svgjs" width="1440" height="560" preserveAspectRatio="none" viewBox="0 0 1440 560"><g mask="url(&quot;#SvgjsMask1793&quot;)" fill="none"><use xlink:href="#SvgjsG1806" transform="translate(0, 0)" fill="#0f457b"></use><use xlink:href="#SvgjsG1806" transform="translate(0, 533)" fill="#0f457b"></use><use xlink:href="#SvgjsG1806" transform="translate(533, 0)" fill="#0f457b"></use><use xlink:href="#SvgjsG1806" transform="translate(533, 533)" fill="#0f457b"></use><use xlink:href="#SvgjsG1806" transform="translate(1066, 0)" fill="#0f457b"></use><use xlink:href="#SvgjsG1806" transform="translate(1066, 533)" fill="#0f457b"></use></g><defs><mask id="SvgjsMask1793"><rect width="1440" height="560" fill="#ffffff"></rect></mask><g id="SvgjsG1797"><path d="M6.04 7.69L13.98 8.38l-0.19 2.21-7.95-0.7z"></path><path d="M13.01 2.23l1.63 1.95-6.15 5.16L6.86 7.39z"></path><path d="M5.84 9.9L6.53 1.96l2.21 0.19L8.05 10.1zM-0.41 6.18l8.82 10.52-1.73 1.46L-2.15 7.64z"></path><path d="M2.45 3.17l1.46 1.73-4.9 4.12-1.46-1.74z m7.89 9.39l1.46 1.74-4.91 4.12-1.45-1.74z"></path></g><g id="SvgjsG1798"><path d="M2.08 12.59C-0.65 9.33-0.23 4.46 3.04 1.72 6.29-1.01 11.17-0.59 13.9 2.67S16.21 10.81 12.95 13.54c-3.26 2.74-8.14 2.31-10.87-0.95z m1.46-1.23c2.06 2.45 5.73 2.78 8.19 0.72 2.45-2.06 2.77-5.73 0.71-8.18-2.06-2.45-5.73-2.77-8.18-0.72-2.46 2.06-2.78 5.73-0.72 8.18z"></path><path d="M7.24 8.32a0.57 0.57 0 0 1-0.33-0.45 0.58 0.58 0 0 1 0.14-0.46L10.48 4.52a0.58 0.58 0 0 1 0.75 0.89l-2.66 2.24 2.98 1.38a0.58 0.58 0 0 1 0.29 0.77c-0.13 0.29-0.48 0.42-0.77 0.28l-3.83-1.76z"></path></g><g id="SvgjsG1795"><path d="M1.01 6.19a1.05 1.05 0 1 1 1.6-1.35 1.05 1.05 0 0 1-1.6 1.35zM-3.27 7.01L-1.69 5.69c0.57-0.48 1.42-0.4 1.89 0.17l0.94 1.11c0.48 0.57 0.44 1.46-0.13 1.95L-0.57 10.24-3.27 7.01z m11.34 7.46a1.05 1.05 0 0 0 1.48 0.13 1.05 1.05 0 0 0-1.35-1.61 1.05 1.05 0 0 0-0.13 1.48zM6.44 18.59L8.02 17.27c0.57-0.48 0.64-1.33 0.16-1.9l-0.93-1.11c-0.48-0.57-1.37-0.69-1.93-0.21L3.74 15.37l2.7 3.22z"></path><path d="M4.63 8.86a1.06 1.05 50 1 0 1.37 1.63 1.06 1.05 50 1 0-1.37-1.63"></path><path d="M-0.06 10.84l2.28-0.82c1.11-0.49 1.71 0.28 1.71 0.28l0.53 0.63s0.65 0.72-0.02 1.73L3.23 14.76l-3.29-3.92z m7.2-2.7l1.91-1.6 0.05-0.58-1.91 1.6L3.17 2.76 9.24-2.33l4.02 4.8L10.14 5.08l-0.05 0.59L13.84 2.52 9.29-2.91l-6.7 5.63 4.55 5.42z m6.98 1.25a1.05 1.05 0 0 1 0.13-1.48c0.44-0.37 1.11-0.31 1.48 0.13a1.05 1.05 0 0 1-0.13 1.47 1.05 1.05 0 0 1-1.48-0.13z"></path><path d="M9.01 7.58a0.44 0.44 0 0 0-0.05 0.62l0.93 1.12c0.11 0.13 0.3 0.25 0.46 0.23 0.56-0.06 1.14-0.12 1.32-0.14l-2.11 1.77 2.36 2.8L14.08 12.17c0.56-0.47 0.7-1.34 0.26-1.86-0.26 0.22-0.09 0.08 0.01-0.01L13.22 8.95a1.34 1.34 0 0 0-1.18-0.47l-1.56 0.17-0.85-1.01L9.86 5.01a0.18 0.18 0 0 0-0.16-0.19 0.18 0.18 0 0 0-0.2 0.16l-0.22 2.5c-0.07 0.01-0.21 0.05-0.27 0.1z"></path></g><g id="SvgjsG1801"><path d="M7.94-2.4l-0.37 3.64 1.3 0.17L9.63-0.38z m1.73 13.5c0.21 0.45 0.75 0.67 1.21 0.46 0.46-0.21 0.67-0.75 0.47-1.22l-0.17-0.35-1.66 0.76 0.15 0.35z m1.33-1.51L9.71 6.71c-0.09-0.19-0.31-0.26-0.5-0.18l-0.97 0.45c-0.19 0.09-0.28 0.3-0.19 0.49l1.29 2.88 1.66-0.76z"></path><path d="M9.07 11.84c0.02-0.32-0.03-0.66-0.17-0.98L7.33 7.37 8.99 3.03c0.08-0.23 0.09-0.48-0.02-0.72-0.21-0.47-0.77-0.68-1.24-0.46a0.93 0.93 0 0 0-0.48 0.5l-2.03 5.4s-0.14 0.42 0.09 0.99l2.19 4.88L7.16 17.03c-0.01 0.11 0 0.24 0.05 0.35 0.15 0.34 0.56 0.49 0.91 0.34 0.24-0.11 0.39-0.35 0.4-0.59L9.07 11.84z m0.99 2.75l-0.19 0.87L11.48 15.52l-0.19-1.04c0.55-0.35 0.78-1.06 0.51-1.67-0.3-0.67-1.09-0.96-1.76-0.65-0.68 0.31-0.98 1.1-0.67 1.76 0.14 0.32 0.4 0.55 0.69 0.67z"></path></g><g id="SvgjsG1799"><path d="M11.25 13.31L13.7 11.26c0.35-0.29 0.87-0.24 1.16 0.11a0.82 0.82 0 0 1-0.1 1.15L11.4 15.34c-0.46 0.39-1.05 0.6-1.65 0.59L5.78 15.7c-0.37-0.04-0.59 0.05-0.85 0.27L4.53 16.31l-1.91-2.28 0.96-0.8c0.37-0.31 0.83-0.75 1.69-0.7l4.89 0.42a0.65 0.65 0 0 1 0.44 0.23 0.66 0.66 0 0 1-0.08 0.93c-0.12 0.1-0.27 0.16-0.43 0.15l-2.44-0.13c-0.17 0-0.47 0.01-0.75 0.13-0.15 0.06-0.27 0.15-0.41 0.25l0.35 0.42c0.09-0.08 0.17-0.13 0.26-0.17 0.16-0.07 0.35-0.09 0.47-0.09l2.52 0.1c0.3 0.02 0.59-0.06 0.81-0.25 0.34-0.28 0.48-0.74 0.35-1.21z m-8.04-9.58L5.66 1.68c0.35-0.29 0.39-0.81 0.09-1.16A0.82 0.82 0 0 0 4.6 0.41L1.24 3.23c-0.46 0.39-0.77 0.93-0.87 1.52l-0.46 3.95c-0.02 0.37-0.15 0.57-0.41 0.79L-0.91 9.83l1.91 2.27 0.96-0.8c0.37-0.31 0.88-0.69 0.98-1.55L3.38 4.86a0.65 0.65 0 0 0-0.16-0.46 0.66 0.66 0 0 0-1.15 0.31l-0.29 2.43c-0.03 0.16-0.09 0.46-0.26 0.71-0.08 0.14-0.19 0.24-0.32 0.36l-0.35-0.42c0.09-0.08 0.16-0.15 0.21-0.22 0.1-0.15 0.14-0.33 0.17-0.45L1.57 4.62c0.03-0.3 0.17-0.57 0.39-0.76 0.34-0.28 0.82-0.34 1.25-0.13z m9.97 0.2a0.7 0.7 0 0 0 1.08-0.9 0.7 0.7 0 0 0-1.08 0.9z m-2.46-2.92c-0.25-0.3-0.22-0.75 0.09-1.01 0.3-0.25 0.75-0.21 1 0.09s0.22 0.75-0.08 1.01c-0.3 0.25-0.75 0.21-1.01-0.09z"></path><path d="M13.41 7.67a0.49 0.49 0 1 0 0.63 0.76 0.49 0.49 0 1 0-0.63-0.76"></path><path d="M13.62 9.07l-0.86-1.02c0 0-0.26-0.37-0.25-0.37l1.13-1.68c0.46-0.68 0.01-1.16 0.01-1.16l-1.16-1.39s-0.4-0.52-1.15-0.18l-0.91 0.4 0.56-0.82c0.46-0.68 0.02-1.16 0.02-1.17L10.11 0.61s-0.4-0.52-1.15-0.19l-1.87 0.83c-0.18 0.08-0.22 0.24-0.15 0.4 0.07 0.15 0.24 0.23 0.38 0.16l1.81-0.81 0.18 0.21L6.25 2.72l0.46 0.55-1.8 1.51c-0.15 0.12-0.17 0.35-0.05 0.49 0.12 0.15 0.35 0.17 0.5 0.05l1.8-1.52 0.19 0.23-1.8 1.51c-0.15 0.12-0.17 0.35-0.04 0.5a0.35 0.35 0 0 0 0.49 0.04l1.8-1.51 0.45 0.53 2.03-2.73 0.17 0.2-1.1 1.63c-0.02 0.03-0.03 0.06-0.04 0.09-0.03 0.09 0 0.19 0.06 0.27 0.06 0.08 0.16 0.12 0.26 0.11 0.04 0 0.07-0.01 0.1-0.03l1.79-0.79 0.16 0.19-4.29 3.59a0.41 0.41 0 0 0-0.05 0.59 0.41 0.41 0 0 0 0.58 0.05L10.36 6.22l0.2 0.24-2.44 2.04a0.41 0.41 0 0 0-0.05 0.58 0.41 0.41 0 0 0 0.59 0.06l4.28-3.6 0.17 0.21-1.13 1.63c-0.05 0.08-0.05 0.18 0 0.27 0 0 0 0.01 0 0.01 0.04 0.08 0.2 0.44 0.32 0.71l-2.65 2.23a0.29 0.29 0 0 0 0.37 0.44L11.35 9.93l0.14 0.17-1.32 1.12c-0.12 0.1-0.14 0.29-0.04 0.41s0.29 0.14 0.41 0.03l2.48-2.08 0.15 0.17-0.85 0.71c-0.09 0.08-0.1 0.22-0.02 0.3 0.08 0.09 0.21 0.1 0.3 0.03l0.96-0.81c0.27-0.22 0.29-0.64 0.06-0.91z"></path></g><g id="SvgjsG1800"><path d="M10.49 11.59l-2.17-3.66 0.71 0.18 0.54 0.87 0.76 0.68zM14.9 4.5c0.54 0.65 0.46 1.61-0.19 2.15-0.65 0.54-1.51 0.57-2.15-0.19-0.54-0.65-0.46-1.61 0.19-2.14 0.65-0.54 1.61-0.46 2.15 0.18z m-8.2 7.38l-2.82 2.36A0.83 0.83 0 0 0 3.78 15.42a0.83 0.83 0 0 0 1.17 0.1L7.77 13.15c0.35-0.3 0.4-0.82 0.11-1.17a0.83 0.83 0 0 0-1.18-0.1z m1.67 5.25a0.48 0.48 0 0 1-0.68-0.05l-1.64-1.96 1.85-1.55 0.71 0.85L10.45 12.87a0.48 0.48 0 0 1 0.68 0.06l0.62 0.74a0.48 0.48 0 0 1-0.05 0.68l-3.33 2.78z m-3.9-3.9L1.28 9.44a0.48 0.48 0 0 1 0.06-0.68L4.67 5.97c0.2-0.17 0.51-0.14 0.68 0.06l0.62 0.74a0.48 0.48 0 0 1-0.06 0.68l-1.85 1.55 2.26 2.68-1.85 1.55zM6.78 7.89a0.83 0.83 0 0 0-0.29 1.14l1.87 3.17a0.83 0.83 0 0 0 1.14 0.29c0.4-0.23 0.53-0.74 0.3-1.14L7.92 8.18a0.83 0.83 0 0 0-1.14-0.29z m0.86-6.07C6.88 0.91 6.99-0.45 7.9-1.21S10.17-1.86 10.93-0.95s0.64 2.27-0.26 3.03-2.27 0.64-3.03-0.26z m0.41-0.35c0.57 0.68 1.6 0.77 2.28 0.2 0.68-0.57 0.77-1.6 0.2-2.28-0.57-0.68-1.6-0.77-2.28-0.2-0.68 0.57-0.77 1.6-0.2 2.28z"></path><path d="M9.08 0.63a0.16 0.16 0 0 1-0.1-0.13 0.16 0.16 0 0 1 0.04-0.13L9.98-0.43a0.16 0.16 0 0 1 0.21 0.24l-0.74 0.63 0.83 0.38a0.16 0.16 0 1 1-0.14 0.3l-1.06-0.49z m2.56 6.61l1.51 1.31-1.06 0.89 0.06 1.22c-0.01 0.13-0.12 0.17-0.15 0.18-0.09 0-0.17-0.07-0.18-0.16l-0.08-1.54a0.56 0.56 0 0 0-1.12 0.09l0.22 2.57c0.01 0.12 0.06 0.26 0.15 0.36 0.08 0.09 0.2 0.17 0.32 0.2 0.26 0.07 0.53-0.05 0.68-0.28L13.26 10c0.31-0.53 0.48-1.37-0.03-1.97L11.14 5.53c-0.51-0.61-1.36-0.57-1.94-0.36l-2.27 0.88c-0.24 0.11-0.4 0.35-0.38 0.62 0.01 0.13 0.06 0.26 0.13 0.36 0.09 0.11 0.21 0.18 0.33 0.21l2.49 0.66a0.56 0.56 0 0 0 0.29-1.09l-1.51-0.35a0.17 0.17 0 0 1-0.12-0.2c0.01-0.04 0.07-0.14 0.2-0.12 0 0 0.81 0.19 1.19 0.28l1.06-0.9 1.03 1.72z"></path></g><g id="SvgjsG1794"><path d="M-0.44 8.29l-0.76-0.91C-1.73 6.75-1.78 5.76-0.98 5.09c0 0 5.72-4.8 5.74-4.82 0.71-0.59 1.74-0.45 2.29 0.19l0.76 0.91-8.25 6.92z m13.02-1.21L13.77 6.09c0.43-0.36 0.39-0.96-0.01-1.42 0 0-1.48-1.77-1.47-1.76-0.38-0.46-0.98-0.62-1.41-0.26l-1.18 0.99L8.31 1.99l-8.25 6.93 5.67 6.75L13.98 8.75l-1.4-1.67z m-0.52-0.62L10.21 4.25l1.22-1.02 1.85 2.21-1.22 1.02z m-5.81 9.81l0.76 0.91c0.52 0.62 1.49 0.84 2.3 0.17 0 0 5.73-4.8 5.74-4.82 0.71-0.59 0.75-1.64 0.22-2.28l-0.76-0.9-8.25 6.92z"></path></g><g id="SvgjsG1803"><path d="M4.08 10.57S4.58 8.78 2.86 6.73C1.29 4.85-0.08 4.34-0.08 4.34L7.5-2.03s1.36 0.52 2.96 2.39C12.19 2.4 11.66 4.21 11.66 4.21L4.08 10.57z m0.7 0.83s1.85-0.18 3.57 1.87c1.58 1.88 1.85 3.31 1.85 3.31L17.78 10.22s-0.27-1.43-1.84-3.32c-1.71-2.06-3.58-1.86-3.58-1.86l-7.58 6.36z"></path><path d="M2.08 12.98S2.83 10.25 1.11 8.2c-1.58-1.88-2.94-2.4-2.94-2.39l0.91-0.76s1.36 0.52 2.95 2.38c1.73 2.04 0.96 4.79 0.96 4.79L2.08 12.98z m0 0s2.82-0.26 4.54 1.79c1.58 1.88 1.85 3.31 1.85 3.31l0.91-0.76s-0.27-1.43-1.84-3.32c-1.7-2.06-4.55-1.78-4.55-1.78l-0.91 0.76z"></path></g><g id="SvgjsG1802"><path d="M9.29-1.56l-11.23 9.43 8.27 9.86L17.57 8.31l-8.28-9.87z m-7.45 11.16L0.44 7.93 2.11 6.53 3.51 8.2l-1.67 1.4z m2.55-2.14L2.99 5.79 4.66 4.39 6.06 6.06l-1.67 1.4z m-0.12 5.02L2.87 10.82 4.53 9.41l1.41 1.67-1.67 1.4z m2.55-2.13L5.41 8.68 7.08 7.28l1.4 1.66-1.66 1.41z m-0.13 5.03L5.29 13.71l4.22-3.54 1.4 1.67-4.22 3.54z m5.91-4.86l-6.28-7.49L8.99 0.78l6.29 7.5L12.6 10.52z"></path></g><g id="SvgjsG1805"><path d="M11.12 7.23c0.82 0.98 0.99 2.27 0.59 3.4l2.31 2.76 1.49-1.26c0.56-0.47 0.63-1.29 0.17-1.84L7.07 0.03C6.61-0.52 5.79-0.59 5.23-0.12l-1.48 1.25 4.13 4.91c1.18-0.19 2.42 0.2 3.24 1.19M8.87 1.21l-0.76-0.91-0.43 0.17 0.92 1.1 0.27-0.36zM15.96 9.3l-1.02-1.22L14.24 8.3 15.61 9.93l0.35-0.63zM12.12 5.41l-0.88-1.05L11.75 3.93l0.88 1.05-0.51 0.43zM13.64 5.76l-2.48-2.95-1.41 0.15 3.46 4.12L13.64 5.76z m-2.08 5.24c-0.21 0.44-0.51 0.84-0.9 1.17-1.49 1.25-3.71 1.07-4.95-0.4-1.24-1.48-1.03-3.69 0.46-4.95 0.4-0.33 0.85-0.56 1.31-0.69L3.48 1.35-0.6 4.77c-0.55 0.46-0.63 1.28-0.17 1.84l8.61 10.26c0.46 0.55 1.29 0.62 1.84 0.16L13.76 13.61 11.56 11z"></path><path d="M10.53 10.21a1.72 1.72 0 0 0 0.08-0.33c0.12-0.63-0.02-1.31-0.46-1.84-0.44-0.53-1.08-0.79-1.73-0.78-0.12 0-0.23 0.01-0.34 0.03-0.39 0.06-0.77 0.22-1.1 0.49-0.95 0.8-1.09 2.22-0.3 3.17 0.79 0.94 2.21 1.06 3.17 0.25 0.33-0.27 0.55-0.62 0.68-0.99"></path></g><g id="SvgjsG1804"><path d="M1.61 6.9L4.1 4.8c2.17-1.82 5.61-1.47 7.53 0.81 1.95 2.31 1.71 5.7-0.5 7.56l-2.5 2.1 0.87 1.03L11.99 14.21C14.8 11.87 15.09 7.62 12.68 4.74 10.28 1.88 5.99 1.45 3.23 3.76l-2.49 2.1 0.87 1.04z"></path><path d="M1.24 10.36l-1.15-1.36L4 5.72l1.15 1.36c-1.23 2.23-3.92 3.29-3.91 3.29m7.8 1.35L10.18 13.08 6.27 16.37l-1.15-1.37c1.23-2.23 3.92-3.29 3.92-3.28"></path></g><g id="SvgjsG1796"><path d="M8.25 14.13c0.86 1.02 2.39 1.16 3.42 0.3 1.03-0.86 1.16-2.39 0.3-3.42-0.86-1.03-2.39-1.16-3.42-0.3-1.03 0.86-1.16 2.39-0.3 3.42m-6.22-7.42c0.86 1.02 2.39 1.16 3.42 0.3 1.03-0.86 1.16-2.4 0.3-3.42-0.86-1.03-2.39-1.16-3.43-0.3-1.03 0.86-1.16 2.39-0.29 3.42M10.01 8.7L7.68 5.92l-1.86 1.56L8.16 10.26 10.01 8.7zM13.52 8.89l-5.4-6.43-1.2 1.01 5.4 6.43L13.52 8.89z m-0.58 1.75L14.74 12.78l-5.05 4.25L-0.6 4.77l5.06-4.24 1.84 2.19 1.09-0.91c0.41-0.34 1.02-0.29 1.36 0.12L14.15 8.36c0.34 0.41 0.29 1.02-0.12 1.36l-1.09 0.92z"></path></g><g id="SvgjsG1806"><use xlink:href="#SvgjsG1794" transform="translate(0, 0) scale(1.3)" fill="#0f457b"></use><use xlink:href="#SvgjsG1795" transform="translate(0, 53.300000000000004) scale(1.3)" fill="#0f457b"></use><use xlink:href="#SvgjsG1795" transform="translate(0, 106.60000000000001) scale(1.3)" fill="#0f457b"></use><use xlink:href="#SvgjsG1796" transform="translate(0, 159.9) scale(1.3)" fill="#0f457b"></use><use xlink:href="#SvgjsG1797" transform="translate(0, 213.20000000000002) scale(1.3)" fill="#0f457b"></use><use xlink:href="#SvgjsG1798" transform="translate(0, 266.5) scale(1.3)" fill="#0f457b"></use><use xlink:href="#SvgjsG1799" transform="translate(0, 319.8) scale(1.3)" fill="#0f457b"></use><use xlink:href="#SvgjsG1798" transform="translate(0, 373.1) scale(1.3)" fill="#0f457b"></use><use xlink:href="#SvgjsG1800" transform="translate(0, 426.40000000000003) scale(1.3)" fill="#0f457b"></use><use xlink:href="#SvgjsG1795" transform="translate(0, 479.70000000000005) scale(1.3)" fill="#0f457b"></use><use xlink:href="#SvgjsG1801" transform="translate(53.300000000000004, 0) scale(1.3)" fill="#0f457b"></use><use xlink:href="#SvgjsG1797" transform="translate(53.300000000000004, 53.300000000000004) scale(1.3)" fill="#0f457b"></use><use xlink:href="#SvgjsG1800" transform="translate(53.300000000000004, 106.60000000000001) scale(1.3)" fill="#0f457b"></use><use xlink:href="#SvgjsG1794" transform="translate(53.300000000000004, 159.9) scale(1.3)" fill="#0f457b"></use><use xlink:href="#SvgjsG1801" transform="translate(53.300000000000004, 213.20000000000002) scale(1.3)" fill="#0f457b"></use><use xlink:href="#SvgjsG1802" transform="translate(53.300000000000004, 266.5) scale(1.3)" fill="#0f457b"></use><use xlink:href="#SvgjsG1803" transform="translate(53.300000000000004, 319.8) scale(1.3)" fill="#0f457b"></use><use xlink:href="#SvgjsG1799" transform="translate(53.300000000000004, 373.1) scale(1.3)" fill="#0f457b"></use><use xlink:href="#SvgjsG1798" transform="translate(53.300000000000004, 426.40000000000003) scale(1.3)" fill="#0f457b"></use><use xlink:href="#SvgjsG1804" transform="translate(53.300000000000004, 479.70000000000005) scale(1.3)" fill="#0f457b"></use><use xlink:href="#SvgjsG1797" transform="translate(106.60000000000001, 0) scale(1.3)" fill="#0f457b"></use><use xlink:href="#SvgjsG1801" transform="translate(106.60000000000001, 53.300000000000004) scale(1.3)" fill="#0f457b"></use><use xlink:href="#SvgjsG1794" transform="translate(106.60000000000001, 106.60000000000001) scale(1.3)" fill="#0f457b"></use><use xlink:href="#SvgjsG1795" transform="translate(106.60000000000001, 159.9) scale(1.3)" fill="#0f457b"></use><use xlink:href="#SvgjsG1801" transform="translate(106.60000000000001, 213.20000000000002) scale(1.3)" fill="#0f457b"></use><use xlink:href="#SvgjsG1799" transform="translate(106.60000000000001, 266.5) scale(1.3)" fill="#0f457b"></use><use xlink:href="#SvgjsG1798" transform="translate(106.60000000000001, 319.8) scale(1.3)" fill="#0f457b"></use><use xlink:href="#SvgjsG1794" transform="translate(106.60000000000001, 373.1) scale(1.3)" fill="#0f457b"></use><use xlink:href="#SvgjsG1794" transform="translate(106.60000000000001, 426.40000000000003) scale(1.3)" fill="#0f457b"></use><use xlink:href="#SvgjsG1795" transform="translate(106.60000000000001, 479.70000000000005) scale(1.3)" fill="#0f457b"></use><use xlink:href="#SvgjsG1796" transform="translate(159.9, 0) scale(1.3)" fill="#0f457b"></use><use xlink:href="#SvgjsG1796" transform="translate(159.9, 53.300000000000004) scale(1.3)" fill="#0f457b"></use><use xlink:href="#SvgjsG1796" transform="translate(159.9, 106.60000000000001) scale(1.3)" fill="#0f457b"></use><use xlink:href="#SvgjsG1805" transform="translate(159.9, 159.9) scale(1.3)" fill="#0f457b"></use><use xlink:href="#SvgjsG1802" transform="translate(159.9, 213.20000000000002) scale(1.3)" fill="#0f457b"></use><use xlink:href="#SvgjsG1801" transform="translate(159.9, 266.5) scale(1.3)" fill="#0f457b"></use><use xlink:href="#SvgjsG1805" transform="translate(159.9, 319.8) scale(1.3)" fill="#0f457b"></use><use xlink:href="#SvgjsG1800" transform="translate(159.9, 373.1) scale(1.3)" fill="#0f457b"></use><use xlink:href="#SvgjsG1797" transform="translate(159.9, 426.40000000000003) scale(1.3)" fill="#0f457b"></use><use xlink:href="#SvgjsG1795" transform="translate(159.9, 479.70000000000005) scale(1.3)" fill="#0f457b"></use><use xlink:href="#SvgjsG1804" transform="translate(213.20000000000002, 0) scale(1.3)" fill="#0f457b"></use><use xlink:href="#SvgjsG1801" transform="translate(213.20000000000002, 53.300000000000004) scale(1.3)" fill="#0f457b"></use><use xlink:href="#SvgjsG1794" transform="translate(213.20000000000002, 106.60000000000001) scale(1.3)" fill="#0f457b"></use><use xlink:href="#SvgjsG1799" transform="translate(213.20000000000002, 159.9) scale(1.3)" fill="#0f457b"></use><use xlink:href="#SvgjsG1794" transform="translate(213.20000000000002, 213.20000000000002) scale(1.3)" fill="#0f457b"></use><use xlink:href="#SvgjsG1795" transform="translate(213.20000000000002, 266.5) scale(1.3)" fill="#0f457b"></use><use xlink:href="#SvgjsG1797" transform="translate(213.20000000000002, 319.8) scale(1.3)" fill="#0f457b"></use><use xlink:href="#SvgjsG1797" transform="translate(213.20000000000002, 373.1) scale(1.3)" fill="#0f457b"></use><use xlink:href="#SvgjsG1796" transform="translate(213.20000000000002, 426.40000000000003) scale(1.3)" fill="#0f457b"></use><use xlink:href="#SvgjsG1802" transform="translate(213.20000000000002, 479.70000000000005) scale(1.3)" fill="#0f457b"></use><use xlink:href="#SvgjsG1798" transform="translate(266.5, 0) scale(1.3)" fill="#0f457b"></use><use xlink:href="#SvgjsG1804" transform="translate(266.5, 53.300000000000004) scale(1.3)" fill="#0f457b"></use><use xlink:href="#SvgjsG1797" transform="translate(266.5, 106.60000000000001) scale(1.3)" fill="#0f457b"></use><use xlink:href="#SvgjsG1798" transform="translate(266.5, 159.9) scale(1.3)" fill="#0f457b"></use><use xlink:href="#SvgjsG1803" transform="translate(266.5, 213.20000000000002) scale(1.3)" fill="#0f457b"></use><use xlink:href="#SvgjsG1803" transform="translate(266.5, 266.5) scale(1.3)" fill="#0f457b"></use><use xlink:href="#SvgjsG1796" transform="translate(266.5, 319.8) scale(1.3)" fill="#0f457b"></use><use xlink:href="#SvgjsG1801" transform="translate(266.5, 373.1) scale(1.3)" fill="#0f457b"></use><use xlink:href="#SvgjsG1798" transform="translate(266.5, 426.40000000000003) scale(1.3)" fill="#0f457b"></use><use xlink:href="#SvgjsG1796" transform="translate(266.5, 479.70000000000005) scale(1.3)" fill="#0f457b"></use><use xlink:href="#SvgjsG1799" transform="translate(319.8, 0) scale(1.3)" fill="#0f457b"></use><use xlink:href="#SvgjsG1801" transform="translate(319.8, 53.300000000000004) scale(1.3)" fill="#0f457b"></use><use xlink:href="#SvgjsG1795" transform="translate(319.8, 106.60000000000001) scale(1.3)" fill="#0f457b"></use><use xlink:href="#SvgjsG1800" transform="translate(319.8, 159.9) scale(1.3)" fill="#0f457b"></use><use xlink:href="#SvgjsG1804" transform="translate(319.8, 213.20000000000002) scale(1.3)" fill="#0f457b"></use><use xlink:href="#SvgjsG1805" transform="translate(319.8, 266.5) scale(1.3)" fill="#0f457b"></use><use xlink:href="#SvgjsG1799" transform="translate(319.8, 319.8) scale(1.3)" fill="#0f457b"></use><use xlink:href="#SvgjsG1804" transform="translate(319.8, 373.1) scale(1.3)" fill="#0f457b"></use><use xlink:href="#SvgjsG1802" transform="translate(319.8, 426.40000000000003) scale(1.3)" fill="#0f457b"></use><use xlink:href="#SvgjsG1797" transform="translate(319.8, 479.70000000000005) scale(1.3)" fill="#0f457b"></use><use xlink:href="#SvgjsG1799" transform="translate(373.1, 0) scale(1.3)" fill="#0f457b"></use><use xlink:href="#SvgjsG1800" transform="translate(373.1, 53.300000000000004) scale(1.3)" fill="#0f457b"></use><use xlink:href="#SvgjsG1799" transform="translate(373.1, 106.60000000000001) scale(1.3)" fill="#0f457b"></use><use xlink:href="#SvgjsG1795" transform="translate(373.1, 159.9) scale(1.3)" fill="#0f457b"></use><use xlink:href="#SvgjsG1801" transform="translate(373.1, 213.20000000000002) scale(1.3)" fill="#0f457b"></use><use xlink:href="#SvgjsG1794" transform="translate(373.1, 266.5) scale(1.3)" fill="#0f457b"></use><use xlink:href="#SvgjsG1800" transform="translate(373.1, 319.8) scale(1.3)" fill="#0f457b"></use><use xlink:href="#SvgjsG1797" transform="translate(373.1, 373.1) scale(1.3)" fill="#0f457b"></use><use xlink:href="#SvgjsG1794" transform="translate(373.1, 426.40000000000003) scale(1.3)" fill="#0f457b"></use><use xlink:href="#SvgjsG1802" transform="translate(373.1, 479.70000000000005) scale(1.3)" fill="#0f457b"></use><use xlink:href="#SvgjsG1802" transform="translate(426.40000000000003, 0) scale(1.3)" fill="#0f457b"></use><use xlink:href="#SvgjsG1796" transform="translate(426.40000000000003, 53.300000000000004) scale(1.3)" fill="#0f457b"></use><use xlink:href="#SvgjsG1796" transform="translate(426.40000000000003, 106.60000000000001) scale(1.3)" fill="#0f457b"></use><use xlink:href="#SvgjsG1804" transform="translate(426.40000000000003, 159.9) scale(1.3)" fill="#0f457b"></use><use xlink:href="#SvgjsG1804" transform="translate(426.40000000000003, 213.20000000000002) scale(1.3)" fill="#0f457b"></use><use xlink:href="#SvgjsG1805" transform="translate(426.40000000000003, 266.5) scale(1.3)" fill="#0f457b"></use><use xlink:href="#SvgjsG1801" transform="translate(426.40000000000003, 319.8) scale(1.3)" fill="#0f457b"></use><use xlink:href="#SvgjsG1800" transform="translate(426.40000000000003, 373.1) scale(1.3)" fill="#0f457b"></use><use xlink:href="#SvgjsG1802" transform="translate(426.40000000000003, 426.40000000000003) scale(1.3)" fill="#0f457b"></use><use xlink:href="#SvgjsG1795" transform="translate(426.40000000000003, 479.70000000000005) scale(1.3)" fill="#0f457b"></use><use xlink:href="#SvgjsG1797" transform="translate(479.70000000000005, 0) scale(1.3)" fill="#0f457b"></use><use xlink:href="#SvgjsG1797" transform="translate(479.70000000000005, 53.300000000000004) scale(1.3)" fill="#0f457b"></use><use xlink:href="#SvgjsG1798" transform="translate(479.70000000000005, 106.60000000000001) scale(1.3)" fill="#0f457b"></use><use xlink:href="#SvgjsG1803" transform="translate(479.70000000000005, 159.9) scale(1.3)" fill="#0f457b"></use><use xlink:href="#SvgjsG1804" transform="translate(479.70000000000005, 213.20000000000002) scale(1.3)" fill="#0f457b"></use><use xlink:href="#SvgjsG1798" transform="translate(479.70000000000005, 266.5) scale(1.3)" fill="#0f457b"></use><use xlink:href="#SvgjsG1798" transform="translate(479.70000000000005, 319.8) scale(1.3)" fill="#0f457b"></use><use xlink:href="#SvgjsG1794" transform="translate(479.70000000000005, 373.1) scale(1.3)" fill="#0f457b"></use><use xlink:href="#SvgjsG1803" transform="translate(479.70000000000005, 426.40000000000003) scale(1.3)" fill="#0f457b"></use><use xlink:href="#SvgjsG1805" transform="translate(479.70000000000005, 479.70000000000005) scale(1.3)" fill="#0f457b"></use></g></defs></svg>